<svg id="Capa_1" enable-background="new 0 0 512 512" height="512" viewBox="0 0 512 512" width="512" xmlns="http://www.w3.org/2000/svg" xmlns:xlink="http://www.w3.org/1999/xlink"><linearGradient id="SVGID_1_" gradientUnits="userSpaceOnUse" x1="256" x2="256" y1="512" y2="0"><stop offset="0" stop-color="#ffbef9"/><stop offset="1" stop-color="#fff1ff"/></linearGradient><linearGradient id="SVGID_2_" gradientUnits="userSpaceOnUse" x1="256" x2="256" y1="371" y2="177.128"><stop offset="0" stop-color="#ff81ff"/><stop offset="1" stop-color="#a93aff"/></linearGradient><g><g><circle cx="256" cy="256" fill="url(#SVGID_1_)" r="256"/></g><g><g><path d="m120.321 223.16c27.965-29.385 74.198-64.418 135.679-64.418s107.714 35.034 135.679 64.418c1.735 1.836 4.094 2.764 6.436 2.764 2.203 0 4.406-.806 6.124-2.443 3.556-3.37 3.695-8.983.312-12.535-30.359-31.915-80.772-69.946-148.551-69.946s-118.192 38.031-148.551 69.945c-3.383 3.552-3.244 9.166.312 12.535 3.556 3.379 9.195 3.249 12.56-.32zm135.679 24.291c-14.694 0-26.646 11.938-26.646 26.613s11.953 26.613 26.646 26.613 26.646-11.938 26.646-26.613-11.952-26.613-26.646-26.613zm0 35.484c-4.905 0-8.882-3.972-8.882-8.871 0-4.9 3.977-8.871 8.882-8.871s8.882 3.971 8.882 8.871c0 4.899-3.977 8.871-8.882 8.871zm10.887-105.807c48.757 5.432 86.817 46.81 86.817 96.936s-38.06 91.504-86.817 96.936c86.093-6.606 136.662-88.729 138.844-92.371 1.683-2.807 1.683-6.324 0-9.131-2.182-3.641-52.751-85.763-138.844-92.37zm69.053 96.936c0-44.025-35.858-79.838-79.94-79.838s-79.94 35.813-79.94 79.838 35.858 79.838 79.94 79.838 79.94-35.813 79.94-79.838zm-35.98 31.36c3.469 3.465 3.469 9.079 0 12.544s-9.09 3.465-12.56 0l-6.947-6.938c-4.658 3.084-9.91 5.338-15.571 6.491v9.769c0 4.903-3.973 8.871-8.882 8.871s-8.882-3.968-8.882-8.871v-9.769c-5.661-1.152-10.913-3.407-15.571-6.491l-6.947 6.938c-3.469 3.465-9.09 3.465-12.56 0-3.469-3.465-3.469-9.079 0-12.544l6.947-6.938c-3.087-4.652-5.346-9.899-6.5-15.551h-9.78c-4.909 0-8.882-3.968-8.882-8.871s3.973-8.871 8.882-8.871h9.78c1.154-5.652 3.413-10.899 6.5-15.551l-6.947-6.938c-3.469-3.465-3.469-9.079 0-12.544 3.47-3.465 9.09-3.465 12.56 0l6.947 6.938c4.658-3.084 9.91-5.338 15.571-6.491v-9.769c0-4.903 3.973-8.871 8.882-8.871s8.882 3.968 8.882 8.871v9.769c5.661 1.152 10.913 3.407 15.571 6.491l6.947-6.938c3.47-3.465 9.09-3.465 12.56 0 3.469 3.465 3.469 9.079 0 12.544l-6.947 6.938c3.087 4.652 5.346 9.899 6.5 15.551h9.78c4.909 0 8.882 3.968 8.882 8.871s-3.973 8.871-8.882 8.871h-9.78c-1.154 5.652-3.413 10.899-6.5 15.551zm-141.664-31.36c0-50.126 38.061-91.504 86.817-96.936-86.093 6.607-136.662 88.729-138.844 92.371-1.683 2.807-1.683 6.324 0 9.131 2.182 3.642 52.751 85.764 138.844 92.371-48.757-5.433-86.817-46.811-86.817-96.937z" fill="url(#SVGID_2_)"/></g></g></g></svg>